<mxfile host="app.diagrams.net" modified="2020-11-27T09:08:10.912Z" agent="5.0 (X11)" etag="sn-aqUYiaSCrmzK2E5oG" version="13.10.4" type="github">
  <diagram id="-Q1pypfranr94ecXXdVQ" name="Page-1">
    <mxGraphModel dx="1022" dy="720" grid="1" gridSize="10" guides="1" tooltips="1" connect="1" arrows="1" fold="1" page="1" pageScale="1" pageWidth="850" pageHeight="1100" math="0" shadow="0">
      <root>
        <mxCell id="0" />
        <mxCell id="1" parent="0" />
        <mxCell id="BzECGFFduOBbJ5R4MtqY-2" value="" style="rounded=0;whiteSpace=wrap;html=1;" vertex="1" parent="1">
          <mxGeometry x="150" y="110" width="520" height="550" as="geometry" />
        </mxCell>
        <mxCell id="BzECGFFduOBbJ5R4MtqY-3" value="Customer" style="shape=umlActor;verticalLabelPosition=bottom;verticalAlign=top;html=1;outlineConnect=0;" vertex="1" parent="1">
          <mxGeometry x="60" y="330" width="30" height="60" as="geometry" />
        </mxCell>
        <mxCell id="BzECGFFduOBbJ5R4MtqY-4" value="Cancel tickets" style="ellipse;whiteSpace=wrap;html=1;" vertex="1" parent="1">
          <mxGeometry x="460" y="240" width="120" height="80" as="geometry" />
        </mxCell>
        <mxCell id="BzECGFFduOBbJ5R4MtqY-5" value="Get refund" style="ellipse;whiteSpace=wrap;html=1;" vertex="1" parent="1">
          <mxGeometry x="450" y="490" width="120" height="80" as="geometry" />
        </mxCell>
        <mxCell id="BzECGFFduOBbJ5R4MtqY-6" value="login" style="ellipse;whiteSpace=wrap;html=1;" vertex="1" parent="1">
          <mxGeometry x="170" y="330" width="120" height="80" as="geometry" />
        </mxCell>
        <mxCell id="BzECGFFduOBbJ5R4MtqY-7" value="" style="endArrow=none;html=1;" edge="1" parent="1" target="BzECGFFduOBbJ5R4MtqY-6">
          <mxGeometry width="50" height="50" relative="1" as="geometry">
            <mxPoint x="90" y="370" as="sourcePoint" />
            <mxPoint x="140" y="320" as="targetPoint" />
          </mxGeometry>
        </mxCell>
        <mxCell id="BzECGFFduOBbJ5R4MtqY-8" value="&amp;lt;&amp;lt;Extend&amp;gt;&amp;gt;" style="endArrow=open;endSize=12;dashed=1;html=1;" edge="1" parent="1" source="BzECGFFduOBbJ5R4MtqY-4" target="BzECGFFduOBbJ5R4MtqY-6">
          <mxGeometry width="160" relative="1" as="geometry">
            <mxPoint x="280" y="260" as="sourcePoint" />
            <mxPoint x="440" y="260" as="targetPoint" />
          </mxGeometry>
        </mxCell>
        <mxCell id="BzECGFFduOBbJ5R4MtqY-9" value="&amp;lt;&amp;lt;include&amp;gt;&amp;gt;" style="endArrow=open;endSize=12;dashed=1;html=1;exitX=0.558;exitY=1.038;exitDx=0;exitDy=0;exitPerimeter=0;" edge="1" parent="1" source="BzECGFFduOBbJ5R4MtqY-4" target="BzECGFFduOBbJ5R4MtqY-5">
          <mxGeometry width="160" relative="1" as="geometry">
            <mxPoint x="631.2242397915988" y="356.8842999796309" as="sourcePoint" />
            <mxPoint x="450.0049236647966" y="413.1088167936839" as="targetPoint" />
          </mxGeometry>
        </mxCell>
        <mxCell id="BzECGFFduOBbJ5R4MtqY-10" value="Usecase for CANCELLATION" style="text;html=1;strokeColor=none;fillColor=none;align=center;verticalAlign=middle;whiteSpace=wrap;rounded=0;" vertex="1" parent="1">
          <mxGeometry x="350" y="50" width="170" height="20" as="geometry" />
        </mxCell>
      </root>
    </mxGraphModel>
  </diagram>
</mxfile>
